<svg xmlns="http://www.w3.org/2000/svg" width="79.02" height="30.1" viewBox="0 0 79.02 30.1">
  <g id="bring--green" transform="translate(-35.4 -27.2)">
    <path id="Path_816" data-name="Path 816" d="M36.478,39.834a6.58,6.58,0,0,1,13.118,0H61.709a13.165,13.165,0,0,0-26.309,0Z" fill="#7bc144"/>
    <path id="Path_817" data-name="Path 817" d="M49.677,100.8a6.58,6.58,0,0,1-13.118,0H35.5a13.165,13.165,0,0,0,26.309,0Z" transform="translate(-0.081 -59.925)" fill="#c1c1c1"/>
    <path id="Path_818" data-name="Path 818" d="M201.106,84.23a4.808,4.808,0,0,0-3.512,1.04V80.7H194.9V96.029h2.415V95.1a4.8,4.8,0,0,0,3.344,1.115c4.626,0,4.942-3.14,4.942-5.964C205.621,86.739,205.063,84.23,201.106,84.23Zm-.595,9.569c-2.3,0-2.973-.65-2.973-3.549s.669-3.549,2.973-3.549c1.988,0,2.415.836,2.415,3.549S202.5,93.8,200.511,93.8Zm12.021-9.569a4.113,4.113,0,0,0-3.177,1.245v-1.04h-2.323V96.029h2.694V90.993a9.491,9.491,0,0,1,.26-3.01,2.072,2.072,0,0,1,2.1-1.375c1.115,0,1.561.242,1.561,1.3h2.639C216.286,85.364,215.022,84.23,212.533,84.23Zm15.143,0a4.785,4.785,0,0,0-3.344,1.115v-.91h-2.322V96.029H224.7V90.64c0-2.025-.2-4.013,2.694-4.013,2.323,0,2.118,1.078,2.118,3.307v6.113h2.694V89.73C232.172,87.184,232.357,84.23,227.675,84.23Zm14.177.2v.91a5.7,5.7,0,0,0-3.6-1.115c-3.995,0-4.626,2.4-4.626,5.927,0,2.787.26,5.871,4.664,5.871a5.132,5.132,0,0,0,3.326-1.022,18.383,18.383,0,0,1-.056,2.025c-.149,1.1-1.263,1.561-2.806,1.561-1.505,0-1.97-.427-1.97-1.263h-2.917c0,2.954,2.638,3.53,4.961,3.53,2.137,0,4.943-.576,5.37-3.326a23.569,23.569,0,0,0,.093-2.768V84.416h-2.434Zm-3.159,9.16c-1.988,0-2.4-.743-2.4-3.456s.409-3.549,2.4-3.549c2.3,0,2.917.65,2.917,3.549C241.61,93.056,241,93.595,238.693,93.595Zm-21.126,2.434h2.694V84.435h-2.694Zm0-12.634h2.694V80.7h-2.694Z" transform="translate(-129.865 -43.56)" fill="#7bc144"/>
  </g>
</svg>
